<?xml version="1.0" encoding="utf-8"?>
<!-- Generator: Adobe Illustrator 19.0.0, SVG Export Plug-In . SVG Version: 6.00 Build 0)  -->
<svg version="1.1" id="图层_1" xmlns="http://www.w3.org/2000/svg" xmlns:xlink="http://www.w3.org/1999/xlink" x="0px" y="0px"
	 viewBox="-3512 370.7 204 52" style="enable-background:new -3512 370.7 204 52;" xml:space="preserve">
<style type="text/css">
	.st0{fill:#FE7300;}
</style>
<g id="files-lg">
	<path class="st0" d="M-3472,412.7v-30h2v28h22v2H-3472L-3472,412.7z M-3467,407.7v-21h4v21H-3467L-3467,407.7z M-3461,407.7v-15h4
		v15H-3461L-3461,407.7z M-3443.5,418.7h-33c-0.8,0-1.5-0.7-1.5-1.5v-39c0-0.8,0.7-1.5,1.5-1.5h23.5l11,11v29.5
		C-3442,418-3442.7,418.7-3443.5,418.7L-3443.5,418.7z M-3444,388.7l-10-10h-22v38h32V388.7L-3444,388.7z M-3455,407.7v-10h4v10
		H-3455L-3455,407.7z"/>
	<path class="st0" d="M-3495,384.7h-16c-0.6,0-1,0.5-1,1v26c0,0.5,0.4,1,1,1h22c0.6,0,1-0.5,1-1v-20L-3495,384.7z M-3490,410.7h-20
		v-24h6v2h2v-2h6l6,6V410.7z M-3504,401.2c-1.2,0.7-2,2-2,3.5v2h8v-2c0-2.2-1.8-4-4-4v-2h-2V401.2z M-3500,402.7v2h-4v-2H-3500z
		 M-3502,390.7v-2h2v2H-3502z M-3504,390.7h2v2h-2V390.7z M-3502,394.7v-2h2v2H-3502z M-3504,394.7h2v2h-2V394.7z M-3502,398.7v-2h2
		v2H-3502z"/>
	<path class="st0" d="M-3343.5,418.7h-33c-0.8,0-1.5-0.7-1.5-1.5v-39c0-0.8,0.7-1.5,1.5-1.5h23.5l11,11v29.5
		C-3342,418-3342.7,418.7-3343.5,418.7z M-3344,388.7l-10-10h-22v38h32V388.7z M-3372,405.7v-2h21v2H-3372z M-3372,400.7v-2h21v2
		H-3372z M-3372,395.7v-2h21v2H-3372z M-3372,387.7v-2h12v2H-3372z M-3372,410.7v-2h21v2H-3372z"/>
	<path class="st0" d="M-3331,384.7c-0.5,0-1,0.5-1,1v26c0,0.5,0.5,1,1,1h22c0.5,0,1-0.5,1-1v-18v-2l-7-7H-3331z M-3311.2,400.6
		c-0.5-0.1-1-0.2-1.5-0.2c-0.8,0-1.6,0.1-2.5,0.2c-0.5-0.1-1.1-0.6-2-1.3c-0.9-0.7-1.7-2.3-2.6-4.7c0.3-1.7,0.4-3,0.5-4
		c0.1-1,0.1-1.5,0-1.5c0.1-0.8-0.1-1.4-0.4-1.8c-0.3-0.4-0.9-0.6-1.3-0.6h5l6,6v8.4C-3310.4,400.9-3310.8,400.7-3311.2,400.6z
		 M-3330,386.7h8c-0.2,0.1-0.4,0.2-0.6,0.4c-0.2,0.2-0.4,0.5-0.5,1c-0.2,0.8-0.3,1.8-0.2,2.9c0.1,1.2,0.4,2.4,0.7,3.6
		c-0.5,1.5-1.2,3.3-2.2,5.4s-1.6,3.3-1.8,3.7c-0.3,0.1-0.7,0.3-1.4,0.6c-0.7,0.3-1.3,0.8-2,1.4V386.7L-3330,386.7z M-3316.9,401.7
		c-1.3,0.2-2.5,0.4-3.6,0.7c-1.2,0.3-2.4,0.7-3.7,1.2l1.2-2.5c0.8-1.7,1.4-3.2,1.8-4.6v0.1c0.9,2.3,1.7,3.7,2.3,4.2
		C-3318.2,401.2-3317.5,401.5-3316.9,401.7L-3316.9,401.7z M-3327.9,409.9c0.9-0.8,2.1-2.3,3.6-4.8c0.6-0.3,1.2-0.5,1.6-0.7l0.8-0.3
		c1-0.3,1.9-0.5,2.9-0.7c1-0.2,2-0.3,3-0.4c0.9,0.4,1.9,0.8,2.8,1c1,0.3,1.8,0.4,2.5,0.5c0.2,0,0.5,0.2,0.7,0.2v6h-20
		C-3329.6,410.6-3328.4,410.3-3327.9,409.9z"/>
	<path class="st0" d="M-3401,370.7h-29c-1.1,0-2,0.9-2,2v48c0,1.1,0.9,2,2,2h40c1.1,0,2-0.9,2-2v-37L-3401,370.7z M-3390,420.7h-40
		v-48h28l12,12V420.7z M-3405,388.7l9,10l-9,10l-3-3l7-7l-7-7L-3405,388.7z M-3412,391.7l-7,7l7,7l-3,3l-9-10l9-10L-3412,391.7z"/>
</g>
</svg>
